<svg width="57" height="56" viewBox="0 0 57 56" fill="none" xmlns="http://www.w3.org/2000/svg">
<path d="M28.3346 4.66553C21.918 4.66553 16.668 9.91553 16.668 16.3322V20.9989H21.3346V16.3322C21.3346 12.4822 24.4846 9.33219 28.3346 9.33219C32.1846 9.33219 35.3346 12.4822 35.3346 16.3322V20.9989H40.0013V16.3322C40.0013 9.91553 34.7513 4.66553 28.3346 4.66553Z" fill="#1376F8"/>
<path d="M42.3346 51.3343H14.3346C11.768 51.3343 9.66797 49.2343 9.66797 46.6676V25.6676C9.66797 23.101 11.768 21.001 14.3346 21.001H42.3346C44.9013 21.001 47.0013 23.101 47.0013 25.6676V46.6676C47.0013 49.2343 44.9013 51.3343 42.3346 51.3343Z" fill="#1376F8"/>
<path d="M28.334 43.1685C32.2 43.1685 35.334 40.0344 35.334 36.1685C35.334 32.3025 32.2 29.1685 28.334 29.1685C24.468 29.1685 21.334 32.3025 21.334 36.1685C21.334 40.0344 24.468 43.1685 28.334 43.1685Z" fill="#EFEBE9"/>
<path d="M28.334 39.666C30.267 39.666 31.834 38.099 31.834 36.166C31.834 34.233 30.267 32.666 28.334 32.666C26.401 32.666 24.834 34.233 24.834 36.166C24.834 38.099 26.401 39.666 28.334 39.666Z" fill="#1376F8"/>
<path d="M30.6667 34.9993C31.311 34.9993 31.8333 34.477 31.8333 33.8327C31.8333 33.1884 31.311 32.666 30.6667 32.666C30.0223 32.666 29.5 33.1884 29.5 33.8327C29.5 34.477 30.0223 34.9993 30.6667 34.9993Z" fill="white"/>
</svg>
