<svg width="56" height="56" viewBox="0 0 56 56" fill="none" xmlns="http://www.w3.org/2000/svg">
<g clip-path="url(#clip0_0_1719)">
<path d="M47.056 6.22314H8.94488C8.2229 6.22314 7.53049 6.56458 7.01998 7.17234C6.50946 7.78009 6.22266 8.60439 6.22266 9.46389V41.8713C6.22266 42.7308 6.50946 43.5551 7.01998 44.1628C7.53049 44.7706 8.2229 45.112 8.94488 45.112H29.3615L30.3338 44.1742L31.8893 42.7787L32.6671 42.0009L8.94488 41.8713V9.46389H47.056L46.6671 23.3343C47.4449 24.112 49.0094 26.0773 49.7782 27.2231V9.46389C49.7782 8.60439 49.4914 7.78009 48.9809 7.17234C48.4704 6.56458 47.778 6.22314 47.056 6.22314Z" fill="#1376F8"/>
<path d="M41.5319 21.7762C39.7625 21.7622 38.03 22.2822 36.5608 23.2684C35.0916 24.2546 33.9541 25.6611 33.297 27.304C32.6398 28.9469 32.4935 30.7498 32.8773 32.4772C33.261 34.2046 34.1569 35.776 35.4479 36.9861L32.7655 40.2631L34.0099 45.2547L39.0706 39.0878C40.6726 39.5615 42.3773 39.5615 43.9793 39.0878L49.04 45.2547L50.2845 40.2631L47.602 36.9861C48.893 35.776 49.7889 34.2046 50.1727 32.4772C50.5564 30.7498 50.4362 28.8633 49.7791 27.2204C49.1219 25.5775 47.9844 24.171 46.5152 23.1848C45.0461 22.1986 43.2875 21.7622 41.518 21.7762H41.5319ZM41.5319 36.5436C40.3569 36.5273 39.2129 36.1639 38.2439 35.4992C37.2748 34.8345 36.5239 33.8981 36.0855 32.8078C35.6471 31.7175 35.5409 30.522 35.7801 29.3714C36.0194 28.2209 36.5934 27.1668 37.4301 26.3417C38.2667 25.5165 39.3287 24.9571 40.4824 24.7338C41.6361 24.5105 42.8301 24.6332 43.9142 25.0866C44.9983 25.54 45.9242 26.3038 46.5755 27.282C47.2267 28.2601 47.5742 29.409 47.5743 30.5841C47.5597 32.1745 46.9158 33.6944 45.7834 34.8113C44.651 35.9281 43.1223 36.551 41.5319 36.5436Z" fill="#1376F8"/>
<path d="M10.8887 18.6675H37.3331V21.1564H10.8887V18.6675Z" fill="#1376F8"/>
<path d="M10.8887 24.8877H27.9998V27.3766H10.8887V24.8877Z" fill="#1376F8"/>
<path d="M10.8887 11.999H26.4442V14.4879H10.8887V11.999Z" fill="#1376F8"/>
</g>
<defs>
<clipPath id="clip0_0_1719">
<rect width="56" height="56" fill="white"/>
</clipPath>
</defs>
</svg>
