<svg width="57" height="56" viewBox="0 0 57 56" fill="none" xmlns="http://www.w3.org/2000/svg">
<g clip-path="url(#clip0_0_1708)">
<path d="M16.1302 8.05777L16.174 8.15402C16.279 8.36402 16.594 8.52152 16.9177 8.52152H35.6077C35.9402 8.52152 36.2465 8.36402 36.3602 8.13652L36.404 8.04027V6.18527L36.3952 6.16777V4.42652L36.3515 4.33027C36.229 4.08527 35.879 3.97152 35.6077 3.97152H31.1102C30.5852 3.97152 30.104 3.77902 29.7715 3.43777C29.5177 3.17527 29.3777 2.85152 29.3865 2.51902C29.3952 2.28277 29.3602 2.05527 29.2815 1.82777C28.9927 0.944023 28.0302 0.226523 26.8752 0.0427734C26.674 0.0165234 26.4727 -0.000976562 26.2715 -0.000976562C25.379 -0.000976562 24.5565 0.287773 23.9527 0.804023C23.4277 1.25902 23.1302 1.84527 23.1302 2.45777C23.1302 2.84277 22.9815 3.19277 22.7015 3.47277C22.3865 3.79652 21.9402 3.97152 21.4415 3.97152H16.909C16.5502 3.97152 16.244 4.13777 16.139 4.39152L16.1127 4.47027V6.29902L16.1215 6.31652V8.05777H16.1302ZM16.8915 21.6203H21.109C21.599 21.6203 22.0015 21.2265 22.0015 20.7278V16.519C22.0015 16.029 21.599 15.6265 21.109 15.6265H16.8915C16.4015 15.6265 15.999 16.029 15.999 16.519V20.7278C15.9902 21.2265 16.3927 21.6203 16.8915 21.6203ZM17.784 17.4115H20.2077V19.8265H17.784V17.4115ZM15.9902 29.119C15.9902 29.609 16.3927 30.0115 16.8827 30.0115H21.1002C21.5902 30.0115 21.9927 29.609 21.9927 29.119V24.9103C21.9927 24.4203 21.5902 24.0178 21.1002 24.0178H16.8827C16.3927 24.0178 15.9902 24.4203 15.9902 24.9103V29.119ZM17.784 25.8028H20.2077V28.2178H17.784V25.8028ZM22.0015 37.519V33.3103C22.0015 32.8203 21.599 32.4178 21.109 32.4178H16.8915C16.4015 32.4178 15.999 32.8203 15.999 33.3103V37.519C15.999 38.009 16.4015 38.4115 16.8915 38.4115H21.109C21.599 38.4115 22.0015 38.009 22.0015 37.519ZM20.2077 36.6178H17.784V34.2028H20.2077V36.6178ZM35.6252 17.7265H24.364C23.8652 17.7265 23.4715 18.129 23.4715 18.619C23.4715 19.1178 23.874 19.5115 24.364 19.5115H35.634C36.1327 19.5115 36.5265 19.109 36.5265 18.619C36.5265 18.129 36.124 17.7265 35.6252 17.7265ZM35.6252 26.1178H24.364C23.8652 26.1178 23.4715 26.5203 23.4715 27.0103C23.4715 27.509 23.874 27.9028 24.364 27.9028H35.634C36.1327 27.9028 36.5265 27.5003 36.5265 27.0103C36.5265 26.5203 36.124 26.1178 35.6252 26.1178ZM36.5265 35.4103C36.5265 34.9115 36.124 34.5178 35.634 34.5178H24.364C23.8652 34.5178 23.4715 34.9203 23.4715 35.4103C23.4715 35.909 23.874 36.3028 24.364 36.3028H35.634C36.124 36.3028 36.5265 35.9003 36.5265 35.4103ZM45.1452 38.1315C45.1277 38.1315 45.1102 38.1228 45.084 38.114C44.104 37.764 43.054 37.5715 41.9515 37.5715C41.6627 37.5715 41.3827 37.5803 41.1115 37.6065C36.4215 38.0353 32.7465 41.9903 32.7465 46.7765C32.7465 47.6603 32.869 48.5265 33.1052 49.3403C33.1227 49.4015 33.1402 49.454 33.1577 49.5065C33.5427 50.7403 34.1815 51.869 35.0127 52.8228C35.8702 53.8209 36.9336 54.6217 38.1298 55.1699C39.3261 55.7182 40.6268 56.001 41.9427 55.999C47.0265 55.999 51.1652 51.8603 51.1652 46.7765C51.1652 42.8303 48.654 39.444 45.1452 38.1315ZM47.3765 44.134L40.8402 50.6878C40.6652 50.8628 40.429 50.9503 40.2015 50.9503C40.0889 50.9531 39.9768 50.9336 39.8717 50.8931C39.7666 50.8525 39.6706 50.7917 39.589 50.714L36.544 47.9315C36.1765 47.5903 36.159 47.0303 36.4915 46.6628C36.824 46.304 37.3927 46.2778 37.7515 46.6103L40.1665 48.824L46.1077 42.8653C46.4577 42.5153 47.0177 42.5153 47.3677 42.8653C47.7265 43.2153 47.7265 43.784 47.3765 44.134Z" fill="#1376F8"/>
<path d="M31.6256 50.5924H11.4131C10.9144 50.5924 10.5206 50.1899 10.5206 49.6999V12.7399C10.5206 12.2499 10.9144 11.8474 11.4131 11.8474H41.1019C41.5919 11.8474 41.9944 12.2499 41.9944 12.7399V35.7787C42.8694 35.7787 43.7356 35.8924 44.5494 36.0937C45.1706 36.2424 45.7656 36.4437 46.3431 36.7062V9.56369C46.3431 8.44666 45.9 7.37524 45.1109 6.58456C44.3219 5.79387 43.2514 5.34851 42.1344 5.34619H37.7331V7.95369C37.7331 9.00369 36.7706 9.86119 35.5981 9.86119H16.9169C15.7444 9.86119 14.7819 9.00369 14.7819 7.95369V5.34619H10.3806C9.26359 5.34851 8.1931 5.79387 7.40406 6.58456C6.61501 7.37524 6.17187 8.44666 6.17188 9.56369V50.1549C6.17188 52.4737 8.06188 54.3549 10.3806 54.3549H33.9706C32.9438 53.2713 32.1462 51.9916 31.6256 50.5924Z" fill="#1376F8"/>
<path d="M17.3534 44.4297C16.8547 44.4297 16.4609 44.8322 16.4609 45.3222C16.4609 45.8209 16.8634 46.2147 17.3534 46.2147H18.5872C19.0859 46.2147 19.4797 45.8122 19.4797 45.3222C19.4797 44.8234 19.0772 44.4297 18.5872 44.4297H17.3534ZM21.6847 46.2234H22.9184C23.4172 46.2234 23.8109 45.8209 23.8109 45.3309C23.8109 44.8322 23.4084 44.4384 22.9184 44.4384H21.6847C21.1859 44.4384 20.7922 44.8409 20.7922 45.3309C20.7834 45.8209 21.1859 46.2234 21.6847 46.2234ZM26.0159 44.4297C25.5172 44.4297 25.1234 44.8322 25.1234 45.3222C25.1234 45.8209 25.5259 46.2147 26.0159 46.2147H27.2497C27.7484 46.2147 28.1422 45.8122 28.1422 45.3222C28.1422 44.8234 27.7397 44.4297 27.2497 44.4297H26.0159Z" fill="#1376F8"/>
</g>
<defs>
<clipPath id="clip0_0_1708">
<rect width="56" height="56" fill="white" transform="translate(0.667969)"/>
</clipPath>
</defs>
</svg>
