<svg width="18" height="17" viewBox="0 0 18 17" fill="none" xmlns="http://www.w3.org/2000/svg">
<path d="M8.99631 0.169922C4.39542 0.169922 0.666016 3.90003 0.666016 8.50022C0.666016 13.1011 4.39542 16.8305 8.99631 16.8305C13.5965 16.8305 17.3266 13.1004 17.3266 8.50022C17.3266 3.90003 13.5965 0.169922 8.99631 0.169922ZM6.95555 10.7372C6.95555 11.1874 6.59072 11.5515 6.14122 11.5515C5.69101 11.5515 5.32689 11.1874 5.32689 10.7372V7.26532C5.32689 6.81511 5.69101 6.45028 6.14122 6.45028C6.59072 6.45028 6.95555 6.81511 6.95555 7.26532V10.7372ZM12.7081 10.6786C12.7081 11.3151 12.3362 11.543 11.6997 11.543H8.77121C8.1347 11.543 7.61887 11.0272 7.61887 10.3907V7.51018C7.61887 7.51018 7.56171 7.03104 8.09236 6.58083C8.39227 6.32609 8.83754 5.83989 9.14874 5.24996C9.76689 4.07786 10.1367 3.73632 10.4182 3.82805C11.4612 4.16607 10.9397 5.71216 10.6031 6.35784H11.5557C12.1915 6.35784 12.7081 6.87368 12.7081 7.51018V10.6786Z" fill="#1376F8"/>
</svg>
