<svg width="64" height="64" viewBox="0 0 64 64" fill="none" xmlns="http://www.w3.org/2000/svg">
<rect width="64" height="64" rx="32" fill="#FF3399"/>
<path d="M44.6004 27.2004C44.6006 24.7852 43.9067 22.4207 42.6012 20.3887C41.2958 18.3567 39.4338 16.7427 37.2371 15.7389C35.0403 14.7351 32.6013 14.3838 30.2106 14.7269C27.8198 15.07 25.5781 16.093 23.7522 17.674C21.9264 19.2551 20.5935 21.3276 19.9121 23.6447C19.2308 25.9618 19.2298 28.426 19.9092 30.7437C20.5887 33.0614 21.9199 35.135 23.7445 36.7175C25.569 38.3001 27.8099 39.3249 30.2004 39.6699V42.2004H26.0004C25.523 42.2004 25.0652 42.39 24.7276 42.7276C24.39 43.0652 24.2004 43.523 24.2004 44.0004C24.2004 44.4778 24.39 44.9356 24.7276 45.2732C25.0652 45.6108 25.523 45.8004 26.0004 45.8004H30.2004V48.8004C30.2004 49.2778 30.39 49.7356 30.7276 50.0732C31.0652 50.4108 31.523 50.6004 32.0004 50.6004C32.4778 50.6004 32.9356 50.4108 33.2732 50.0732C33.6107 49.7356 33.8004 49.2778 33.8004 48.8004V45.8004H38.0004C38.4778 45.8004 38.9356 45.6108 39.2732 45.2732C39.6107 44.9356 39.8004 44.4778 39.8004 44.0004C39.8004 43.523 39.6107 43.0652 39.2732 42.7276C38.9356 42.39 38.4778 42.2004 38.0004 42.2004H33.8004V39.6699C36.7974 39.2335 39.5375 37.7338 41.5203 35.4444C43.5031 33.1551 44.5963 30.229 44.6004 27.2004ZM23.0004 27.2004C23.0004 25.4204 23.5282 23.6803 24.5172 22.2003C25.5061 20.7202 26.9117 19.5667 28.5562 18.8855C30.2008 18.2043 32.0104 18.0261 33.7562 18.3733C35.502 18.7206 37.1057 19.5778 38.3644 20.8364C39.623 22.0951 40.4802 23.6988 40.8275 25.4446C41.1747 27.1904 40.9965 29 40.3153 30.6445C39.6341 32.2891 38.4806 33.6947 37.0005 34.6836C35.5205 35.6726 33.7804 36.2004 32.0004 36.2004C29.6143 36.1976 27.3267 35.2485 25.6395 33.5613C23.9523 31.8741 23.0032 29.5865 23.0004 27.2004Z" fill="white"/>
</svg>
