<svg width="64" height="64" viewBox="0 0 64 64" fill="none" xmlns="http://www.w3.org/2000/svg">
<rect width="64" height="64" rx="32" fill="#1376F8"/>
<path d="M45.1997 16.999H37.9997C37.5223 16.999 37.0645 17.1887 36.7269 17.5262C36.3893 17.8638 36.1997 18.3216 36.1997 18.799C36.1997 19.2764 36.3893 19.7343 36.7269 20.0718C37.0645 20.4094 37.5223 20.599 37.9997 20.599H40.8497L35.9417 25.51C33.3902 23.6032 30.2113 22.7335 27.0445 23.0759C23.8777 23.4183 20.958 24.9473 18.8731 27.3554C16.7882 29.7635 15.6926 32.8719 15.807 36.0551C15.9213 39.2383 17.237 42.2601 19.4893 44.5124C21.7416 46.7647 24.7634 48.0804 27.9466 48.1947C31.1298 48.3091 34.2382 47.2135 36.6463 45.1286C39.0544 43.0437 40.5835 40.1241 40.9258 36.9572C41.2682 33.7904 40.3985 30.6115 38.4917 28.06L43.3997 23.149V25.999C43.3997 26.4764 43.5893 26.9342 43.9269 27.2718C44.2645 27.6094 44.7223 27.799 45.1997 27.799C45.6771 27.799 46.1349 27.6094 46.4725 27.2718C46.81 26.9342 46.9997 26.4764 46.9997 25.999V18.799C46.9997 18.3216 46.81 17.8638 46.4725 17.5262C46.1349 17.1887 45.6771 16.999 45.1997 16.999ZM34.7612 41.968C33.5024 43.2263 31.8987 44.0831 30.153 44.4301C28.4073 44.7771 26.5978 44.5986 24.9535 43.9173C23.3092 43.236 21.9038 42.0825 20.915 40.6025C19.9263 39.1226 19.3985 37.3826 19.3985 35.6028C19.3985 33.8229 19.9263 32.083 20.915 30.603C21.9038 29.1231 23.3092 27.9695 24.9535 27.2882C26.5978 26.6069 28.4073 26.4285 30.153 26.7754C31.8987 27.1224 33.5024 27.9792 34.7612 29.2375C36.4461 30.9274 37.3923 33.2164 37.3923 35.6028C37.3923 37.9891 36.4461 40.2781 34.7612 41.968Z" fill="white"/>
</svg>
