<svg width="64" height="64" viewBox="0 0 64 64" fill="none" xmlns="http://www.w3.org/2000/svg">
<g clip-path="url(#clip0_0_1648)">
<rect width="64" height="64" rx="32" fill="#FF3399"/>
<rect x="32" y="-32" width="57.6" height="130.4" fill="#017ED6"/>
<path d="M32.6167 10.4097C32.5467 10.4061 32.477 10.4209 32.4145 10.4526C32.352 10.4844 32.299 10.532 32.2607 10.5907C31.2307 12.1477 31.2007 13.5787 31.2007 13.5997C31.2012 13.7188 31.2282 13.8362 31.2798 13.9435C31.3315 14.0508 31.4064 14.1452 31.4991 14.2198C31.5919 14.2945 31.7001 14.3475 31.816 14.3749C31.9318 14.4024 32.0523 14.4037 32.1687 14.3787C32.3504 14.3352 32.5119 14.2312 32.6267 14.0839C32.7415 13.9365 32.8029 13.7545 32.8007 13.5677C32.8045 13.4583 32.8308 13.3508 32.8778 13.252C32.9249 13.1531 32.9917 13.0649 33.0742 12.9929C33.1567 12.9209 33.2531 12.8666 33.3574 12.8334C33.4617 12.8002 33.5718 12.7887 33.6807 12.7997C33.8815 12.823 34.0664 12.9202 34.1995 13.0723C34.3326 13.2244 34.4043 13.4206 34.4007 13.6227C34.3971 14.2592 34.1408 14.8683 33.6882 15.3158C33.2356 15.7634 32.6237 16.0128 31.9872 16.0092C31.3507 16.0056 30.7417 15.7494 30.2941 15.2967C29.8465 14.8441 29.5971 14.2322 29.6007 13.5957C29.6007 13.5327 29.6097 12.5177 30.1447 11.1957C30.1718 11.1281 30.1799 11.0543 30.1681 10.9824C30.1564 10.9105 30.1252 10.8431 30.0779 10.7877C30.0307 10.7322 29.9692 10.6907 29.9 10.6676C29.8309 10.6445 29.7568 10.6408 29.6857 10.6567C27.3286 11.1982 25.2333 12.543 23.7594 14.4605C22.2854 16.378 21.5247 18.7486 21.6077 21.1657C21.8007 26.6717 26.3237 31.0997 31.8327 31.1897C34.5503 31.2314 37.1762 30.2075 39.1484 28.3372C41.1205 26.467 42.2821 23.899 42.3846 21.183C42.4871 18.4671 41.5222 15.8189 39.6966 13.8054C37.871 11.7918 35.3297 10.573 32.6167 10.4097ZM27.2007 20.7907C27.2007 20.5534 27.2711 20.3214 27.4029 20.124C27.5348 19.9267 27.7222 19.7729 27.9415 19.6821C28.1608 19.5912 28.402 19.5675 28.6348 19.6138C28.8676 19.6601 29.0814 19.7744 29.2492 19.9422C29.4171 20.11 29.5313 20.3238 29.5776 20.5566C29.6239 20.7894 29.6002 21.0307 29.5094 21.2499C29.4185 21.4692 29.2647 21.6566 29.0674 21.7885C28.87 21.9203 28.638 21.9907 28.4007 21.9907C28.0824 21.9907 27.7772 21.8643 27.5522 21.6393C27.3271 21.4142 27.2007 21.109 27.2007 20.7907ZM35.2277 26.2677C34.2596 26.8713 33.1416 27.1912 32.0007 27.1912C30.8598 27.1912 29.7418 26.8713 28.7737 26.2677C28.5941 26.1545 28.4669 25.9745 28.4201 25.7675C28.3732 25.5605 28.4105 25.3433 28.5237 25.1637C28.6369 24.9842 28.8169 24.857 29.0239 24.8101C29.231 24.7632 29.4481 24.8005 29.6277 24.9137C30.3402 25.3559 31.1621 25.5903 32.0007 25.5903C32.8393 25.5903 33.6612 25.3559 34.3737 24.9137C34.4626 24.8577 34.5617 24.8196 34.6653 24.8019C34.7689 24.7841 34.875 24.7869 34.9775 24.8101C35.08 24.8333 35.1769 24.8765 35.2628 24.9372C35.3486 24.9978 35.4216 25.0748 35.4777 25.1637C35.5338 25.2526 35.5718 25.3517 35.5896 25.4553C35.6074 25.5589 35.6046 25.665 35.5813 25.7675C35.5581 25.87 35.515 25.967 35.4543 26.0528C35.3936 26.1386 35.3166 26.2117 35.2277 26.2677ZM35.6007 21.9907C35.3634 21.9907 35.1314 21.9203 34.934 21.7885C34.7367 21.6566 34.5829 21.4692 34.492 21.2499C34.4012 21.0307 34.3775 20.7894 34.4238 20.5566C34.4701 20.3238 34.5843 20.11 34.7522 19.9422C34.92 19.7744 35.1338 19.6601 35.3666 19.6138C35.5994 19.5675 35.8406 19.5912 36.0599 19.6821C36.2792 19.7729 36.4666 19.9267 36.5985 20.124C36.7303 20.3214 36.8007 20.5534 36.8007 20.7907C36.8007 21.109 36.6743 21.4142 36.4492 21.6393C36.2242 21.8643 35.919 21.9907 35.6007 21.9907Z" fill="white"/>
<path d="M26.2992 41.75H23.2992C23.1003 41.75 22.9095 41.829 22.7689 41.9697C22.6282 42.1103 22.5492 42.3011 22.5492 42.5C22.5492 42.6989 22.6282 42.8897 22.7689 43.0303C22.9095 43.171 23.1003 43.25 23.2992 43.25H24.4867L22.4417 45.2962C21.3786 44.5017 20.054 44.1394 18.7345 44.282C17.415 44.4247 16.1985 45.0618 15.3298 46.0652C14.461 47.0685 14.0046 48.3637 14.0522 49.69C14.0998 51.0164 14.6481 52.2754 15.5865 53.2139C16.525 54.1524 17.7841 54.7006 19.1104 54.7482C20.4367 54.7959 21.7319 54.3394 22.7353 53.4707C23.7386 52.6019 24.3758 51.3854 24.5184 50.0659C24.6611 48.7464 24.2987 47.4219 23.5042 46.3587L25.5492 44.3125V45.5C25.5492 45.6989 25.6282 45.8897 25.7689 46.0303C25.9095 46.171 26.1003 46.25 26.2992 46.25C26.4981 46.25 26.6889 46.171 26.8295 46.0303C26.9702 45.8897 27.0492 45.6989 27.0492 45.5V42.5C27.0492 42.3011 26.9702 42.1103 26.8295 41.9697C26.6889 41.829 26.4981 41.75 26.2992 41.75ZM21.9498 52.1538C21.4253 52.678 20.7571 53.035 20.0297 53.1796C19.3023 53.3242 18.5484 53.2498 17.8633 52.966C17.1781 52.6821 16.5926 52.2014 16.1806 51.5848C15.7686 50.9681 15.5487 50.2432 15.5487 49.5016C15.5487 48.7599 15.7686 48.035 16.1806 47.4183C16.5926 46.8017 17.1781 46.321 17.8633 46.0372C18.5484 45.7533 19.3023 45.6789 20.0297 45.8235C20.7571 45.9681 21.4253 46.3251 21.9498 46.8494C22.6519 47.5535 23.0461 48.5072 23.0461 49.5016C23.0461 50.4959 22.6519 51.4496 21.9498 52.1538Z" fill="white"/>
<path d="M45.25 46.0005C45.2501 44.9942 44.961 44.009 44.417 43.1623C43.8731 42.3157 43.0973 41.6431 42.1819 41.2249C41.2666 40.8067 40.2504 40.6603 39.2542 40.8032C38.2581 40.9462 37.324 41.3724 36.5633 42.0312C35.8025 42.69 35.2471 43.5535 34.9632 44.519C34.6793 45.4845 34.6789 46.5112 34.962 47.4769C35.2451 48.4426 35.7998 49.3066 36.56 49.966C37.3203 50.6254 38.254 51.0524 39.25 51.1962V52.2505H37.5C37.3011 52.2505 37.1103 52.3295 36.9697 52.4702C36.829 52.6109 36.75 52.8016 36.75 53.0005C36.75 53.1994 36.829 53.3902 36.9697 53.5309C37.1103 53.6715 37.3011 53.7505 37.5 53.7505H39.25V55.0005C39.25 55.1994 39.329 55.3902 39.4697 55.5309C39.6103 55.6715 39.8011 55.7505 40 55.7505C40.1989 55.7505 40.3897 55.6715 40.5303 55.5309C40.671 55.3902 40.75 55.1994 40.75 55.0005V53.7505H42.5C42.6989 53.7505 42.8897 53.6715 43.0303 53.5309C43.171 53.3902 43.25 53.1994 43.25 53.0005C43.25 52.8016 43.171 52.6109 43.0303 52.4702C42.8897 52.3295 42.6989 52.2505 42.5 52.2505H40.75V51.1962C41.9988 51.0143 43.1405 50.3894 43.9666 49.4356C44.7928 48.4817 45.2483 47.2625 45.25 46.0005ZM36.25 46.0005C36.25 45.2589 36.4699 44.5338 36.882 43.9171C37.294 43.3005 37.8797 42.8198 38.5649 42.536C39.2502 42.2522 40.0042 42.1779 40.7316 42.3226C41.459 42.4673 42.1272 42.8244 42.6517 43.3489C43.1761 43.8733 43.5333 44.5415 43.6779 45.2689C43.8226 45.9964 43.7484 46.7504 43.4645 47.4356C43.1807 48.1208 42.7001 48.7065 42.0834 49.1185C41.4667 49.5306 40.7417 49.7505 40 49.7505C39.0058 49.7494 38.0526 49.3539 37.3496 48.6509C36.6466 47.9479 36.2512 46.9947 36.25 46.0005Z" fill="white"/>
</g>
<defs>
<clipPath id="clip0_0_1648">
<rect width="64" height="64" rx="32" fill="white"/>
</clipPath>
</defs>
</svg>
